<?xml version="1.0" standalone="no"?>
<!DOCTYPE svg PUBLIC "-//W3C//DTD SVG 1.1//EN" "http://www.w3.org/Graphics/SVG/1.1/DTD/svg11.dtd" >
<svg>
<metadata>
Created by FontForge 20090622 at Thu Jun 22 12:57:43 2017
 By deploy user
copyright missing
</metadata>
<defs>
<font id="SMMaxevilleTrial-Constructed" horiz-adv-x="616" >
  <font-face 
    font-family="SM Maxéville Trial Constructed"
    font-weight="400"
    font-stretch="normal"
    units-per-em="1000"
    panose-1="0 0 5 0 0 0 0 0 0 0"
    ascent="800"
    descent="-200"
    x-height="526"
    cap-height="755"
    bbox="49.4 -242 1026 767"
    underline-thickness="50"
    underline-position="-50"
    unicode-range="U+0020-U+007A"
  />
<missing-glyph horiz-adv-x="493" 
d="M404 755v-985h-312v985h312zM328 83h-164v-111h164v111zM296 51v-47h-99v47h99zM328 254h-99v-56h34v23h32v-46h-98v79h-33v-112h164v112zM328 374h-33v-65h-131v-34h164v99zM328 433h-164v-33h65v-36h-65v-33h99v69h65v33zM230 528v-35h-33v35h33zM263 562h-99v-102h164
v33h-65v69zM328 689h-163v-32h64v-37h-65v-32h164v32h-65v37h65v32zM328 -51h-164v-32h69l-69 -47v-32h164v32h-101l69 47h32v32z" />
    <glyph glyph-name=".notdef" horiz-adv-x="493" 
d="M404 755v-985h-312v985h312zM328 83h-164v-111h164v111zM296 51v-47h-99v47h99zM328 254h-99v-56h34v23h32v-46h-98v79h-33v-112h164v112zM328 374h-33v-65h-131v-34h164v99zM328 433h-164v-33h65v-36h-65v-33h99v69h65v33zM230 528v-35h-33v35h33zM263 562h-99v-102h164
v33h-65v69zM328 689h-163v-32h64v-37h-65v-32h164v32h-65v37h65v32zM328 -51h-164v-32h69l-69 -47v-32h164v32h-101l69 47h32v32z" />
    <glyph glyph-name=".null" horiz-adv-x="0" 
 />
    <glyph glyph-name="nonmarkingreturn" horiz-adv-x="333" 
 />
    <glyph glyph-name="space" unicode=" " horiz-adv-x="250" 
 />
    <glyph glyph-name="zero" unicode="0" horiz-adv-x="682" 
d="M320 62v-72q-130 8 -200 108.5t-70 279.5q0 178 70 278.5t200 108.5v-72q-187 -15 -187 -315t187 -316zM362 765q130 -8 200 -108.5t70 -278.5q0 -179 -70 -279.5t-200 -108.5v72q187 16 187 316t-187 315v72z" />
    <glyph glyph-name="one" unicode="1" horiz-adv-x="485" 
d="M316 731v-110l-266 -281v108zM357 755h78v-755h-78v385v257v17v1v95z" />
    <glyph glyph-name="two" unicode="2" horiz-adv-x="638" 
d="M588 75v-75h-538v75h538zM335 694q-70 0 -120.5 -48t-50.5 -120h-81q0 102 75 171t177 69q105 0 175 -59t71 -152q0 -40 -10.5 -73t-35.5 -65t-53 -59l-75 -69l-24 -21l-170 -151h-125l243 208q55 50 74.5 69t47.5 51t36.5 56t8.5 54q0 62 -46 100.5t-117 38.5z" />
    <glyph glyph-name="three" unicode="3" horiz-adv-x="685" 
d="M322 693q-43 -4 -74.5 -22.5t-45 -42t-21 -47t-7.5 -39.5l-1 -16h-81q0 58 18.5 103t44 69t60.5 40t59 20.5t48 6.5v-72zM322 63v-73q-59 3 -106 18.5t-75 37.5t-47.5 48t-27.5 51t-12.5 45.5t-3.5 33.5v13h82q0 -48 20 -83.5t52.5 -53.5t60.5 -26t57 -11zM481 400
q47 -5 80 -26t47 -48t21 -53t7 -44l-1 -18q0 -58 -24.5 -101.5t-56.5 -65.5t-74.5 -35.5t-68 -16.5t-48.5 -3v72q55 1 95 17t57.5 38t27 43.5t9.5 36.5l1 15q0 48 -22.5 80.5t-54.5 44.5t-64 17t-54 3l-23 -2v78q51 0 87.5 12.5t53 30.5t25.5 36t9 31l1 13q0 34 -11.5 60
t-27.5 40t-38 23t-38 12t-33 4v71q68 -3 116.5 -25.5t69.5 -53t32.5 -60.5t11.5 -50v-21q0 -36 -11.5 -64.5t-28 -43.5t-33 -25.5t-28.5 -13.5l-11 -3v-5z" />
    <glyph glyph-name="four" unicode="4" horiz-adv-x="743" 
d="M693 321v-72h-643v72h643zM529 0v208h-78v-208h78zM529 755v-393h-78v393h78zM128 755v-393h-78v393h78z" />
    <glyph glyph-name="five" unicode="5" horiz-adv-x="654" 
d="M327 536q59 0 105.5 -15t75 -39t49 -53t29 -58.5t13.5 -53.5t5 -39v-15q0 -58 -15.5 -105t-39.5 -75t-53.5 -48t-59.5 -28.5t-54 -13t-40 -4.5h-15q-61 0 -109 13.5t-76 35.5t-48.5 48.5t-28.5 53t-12 48.5t-3 36v13h83q0 -51 20 -88t48.5 -53.5t57 -25t48.5 -8.5l20 -1
q59 0 100.5 21t59.5 50.5t27 59t9 50.5v21q0 60 -20 102.5t-49 61t-58 28t-49 9.5h-20q-96 0 -145 -47v76q25 20 61 31t60 12h24zM604 680v75h-541v-75h541zM140 337v301h-77v-301h77z" />
    <glyph glyph-name="six" unicode="6" horiz-adv-x="679" 
d="M361 526q115 -5 184.5 -81t69.5 -187q0 -112 -68.5 -186.5t-185.5 -81.5v74q80 7 127.5 62.5t47.5 137.5q0 81 -46.5 132t-128.5 58v72zM319 63v-73q-124 9 -199.5 111.5t-68.5 289.5q7 184 79 279.5t226 95.5q112 0 188 -63.5t85 -166.5h-81q-12 73 -62 116t-130 43
q-117 0 -176.5 -79t-62.5 -227h5q54 125 197 136v-70q-169 -9 -169 -178q0 -89 40 -148t129 -66z" />
    <glyph glyph-name="seven" unicode="7" horiz-adv-x="641" 
d="M492 638h78l-317 -638h-94zM496 680h-158h-288v75h541v-75h-78h-17z" />
    <glyph glyph-name="eight" unicode="8" horiz-adv-x="662" 
d="M314 61v-71q-20 1 -41 4t-53.5 10.5t-60.5 23.5t-53.5 38.5t-40.5 60t-15 84.5q0 4 -0.5 10t1.5 24t6.5 35t15.5 38t26.5 37t42.5 29t61 16v5l-12.5 2.5t-26.5 11t-34 24t-27 44.5t-12 68q2 1 0 11.5t2.5 28.5l10 39.5t22.5 44t39.5 41t61 31t87.5 14.5v-71
q-140 -8 -140 -139q0 -5 0.5 -12.5t7.5 -27.5t20 -36t42.5 -30t69.5 -16v-77q-183 -5 -183 -145q0 -6 0.5 -15.5t9.5 -34.5t26 -44.5t55.5 -36.5t91.5 -19zM459 400q47 -5 80 -26t46.5 -48t20.5 -53t6 -44v-18q0 -54 -20.5 -95t-49 -63.5t-67.5 -37t-65.5 -19t-53.5 -6.5v72
q51 3 88 19.5t53 38t24.5 42t8.5 34.5l1 15q0 139 -175 144v79q38 3 65.5 17t40 31t19 33.5t7.5 28.5v11q0 128 -132 138v72q64 -4 110 -27t65.5 -53t29.5 -59.5t10 -49.5v-21q0 -38 -11.5 -67.5t-28 -44.5t-33 -24.5t-28.5 -11.5l-11 -2v-5z" />
    <glyph glyph-name="nine" unicode="9" horiz-adv-x="688" 
d="M323 230q-117 4 -188 79.5t-71 188.5t70 188t189 80v-74q-82 -5 -131 -61t-49 -139q0 -82 48 -133.5t132 -57.5v-71zM365 765q134 -10 203.5 -109.5t69.5 -265.5q0 -186 -73.5 -293t-226.5 -107q-118 0 -198.5 62t-89.5 184h81q4 -84 62.5 -130t145.5 -46q114 0 170 87.5
t59 240.5h-5q-26 -60 -76.5 -104t-121.5 -53v70q81 7 128 63.5t47 139.5q0 79 -47 130t-128 58v73z" />
    <glyph glyph-name="A" unicode="A" horiz-adv-x="778" 
d="M659 183l69 -183h-86l-65 183h82zM120 183h81l-66 -183h-85zM262 344h-81l157 411h102l157 -411h-80l-117 305l-8 24h-1h-3h-1l-8 -24zM613 302v-78h-448v78h448z" />
    <glyph glyph-name="B" unicode="B" horiz-adv-x="651" 
d="M128 75v-75h-78v755h78v-75v-251v-71v-283zM448 397q43 -3 74.5 -22t46 -44t22.5 -50t9 -43l1 -17q0 -221 -275 -221h-156v75h154q31 0 54 2t51.5 10.5t47 24t31 44.5t12.5 69v14t-7 32t-21 40.5t-46.5 32t-78.5 14.5h-197v71h141q1 0 13.5 -0.5t20 0l22 1.5t25 5t24 10
t22.5 16.5t17.5 24t12.5 34t4 45.5q0 66 -35.5 90.5t-129.5 24.5h-137v75h137q127 0 186 -51t59 -136q0 -37 -10.5 -68t-26 -48.5t-31 -29.5t-26.5 -16l-10 -4v-5z" />
    <glyph glyph-name="C" unicode="C" horiz-adv-x="829" 
d="M441 695v71q61 -2 113 -16.5t85.5 -35.5t60 -46.5t41 -50.5t23.5 -45.5t12 -33.5l3 -12h-83q-14 50 -47 85t-75.5 51.5t-72.5 23.5t-60 9zM399 61v-71q-22 1 -44.5 4.5t-58.5 14.5t-67.5 27.5t-65.5 46.5t-58 68.5t-39.5 97t-15.5 129.5v0q0 71 15.5 129.5t39.5 97
t58 68.5t65.5 46.5t67.5 27.5t58.5 14.5t44.5 4.5v-71q-69 -4 -121 -32t-78 -63t-41.5 -81t-19 -74.5t-3.5 -53.5v0v-1v-24v-1v0q0 -26 3.5 -54t19 -74t41.5 -81.5t77.5 -63.5t121.5 -31zM441 61q30 2 60 9t72.5 23.5t75.5 51.5t47 85h83q-2 -9 -6 -24.5t-27 -56t-56 -71.5
t-99 -58t-150 -30v71z" />
    <glyph glyph-name="D" unicode="D" horiz-adv-x="725" 
d="M128 755v-755h-78v755h78zM315 755q160 0 260 -104.5t100 -272.5t-100 -273t-260 -105h-146v71h146q125 0 199.5 83.5t74.5 223.5t-74.5 223t-199.5 84h-146v70h146z" />
    <glyph glyph-name="E" unicode="E" horiz-adv-x="622" 
d="M128 755v-755h-78v755h78zM555 429v-71h-386v71h386zM169 0v75h403v-75h-403zM169 755h403v-75h-403v75z" />
    <glyph glyph-name="F" unicode="F" horiz-adv-x="590" 
d="M50 316h78v-316h-78v316zM50 429h462v-71h-462v71zM128 755v-284h-78v284h78zM170 755h370v-75h-370v75z" />
    <glyph glyph-name="G" unicode="G" horiz-adv-x="838" 
d="M788 327v76h-456v-76h456zM788 0v286h-74v-286h74zM672 191v-114q-22 -26 -56.5 -45t-67.5 -27t-62.5 -12t-47.5 -4h-19q-78 0 -140.5 21.5t-100 56t-64.5 76t-39 82.5t-18.5 75.5t-6.5 55.5v22q0 65 12.5 120t34 93t49 68t58 48t61.5 31t58.5 18t49 7.5t33.5 2.5h13
q65 0 120 -13t91 -34.5t64.5 -47t43.5 -51t24.5 -47t12.5 -34.5l3 -13h-83q-13 49 -46.5 84t-71.5 51t-74 24.5t-60 8.5l-24 1q-62 0 -111 -17.5t-78 -45.5t-49.5 -62t-29 -67.5t-13 -61.5t-4.5 -45l1 -18q0 -67 15.5 -120.5t40.5 -86t55.5 -56t61 -34t55.5 -16t41 -5.5h15
q178 0 253 131z" />
    <glyph glyph-name="H" unicode="H" horiz-adv-x="683" 
d="M633 327v76h-583v-76h583zM128 444v311h-78v-311h78zM128 0v286h-78v-286h78zM556 0v286h77v-286h-77zM556 755v-311h77v311h-77z" />
    <glyph glyph-name="I" unicode="I" horiz-adv-x="395" 
d="M159 117v521h78v-521h-78zM50 755v-75h295v75h-295zM50 75v-75h295v75h-295z" />
    <glyph glyph-name="J" unicode="J" horiz-adv-x="568" 
d="M288 60q32 0 58 10t41.5 25.5t27 34t16.5 37.5t7.5 34.5t2.5 25.5v10h77q0 -53 -12.5 -95.5t-33 -67.5t-45 -43t-49 -25.5t-45 -11.5t-33.5 -4h-12q-71 0 -121.5 25.5t-72.5 62t-33 72.5t-11 62v25h74q0 -54 17 -92t41 -54t48 -24t41 -7h17zM518 278h-77v477h77v-477z
" />
    <glyph glyph-name="K" unicode="K" horiz-adv-x="678" 
d="M127 372v-109v-28v-235h-77v755h77v-117v-262v-4zM298 441l330 -441h-91l-290 384l-79 -79v110l5 6l336 334h97z" />
    <glyph glyph-name="L" unicode="L" horiz-adv-x="570" 
d="M520 75v-75h-470v75h470zM128 117v638h-78v-638h78z" />
    <glyph glyph-name="M" unicode="M" horiz-adv-x="851" 
d="M143 755l194 -747h82l-194 747h-82zM514 8l194 747h-83l-194 -747h83zM128 0v755h-78v-755h78zM801 0v755h-78v-755h78z" />
    <glyph glyph-name="N" unicode="N" horiz-adv-x="713" 
d="M143 755l345 -755h82l-345 755h-82zM128 0v755h-78v-755h78zM663 0v755h-78v-755h78z" />
    <glyph glyph-name="O" unicode="O" horiz-adv-x="839" 
d="M399 61v-71q-157 8 -253 114.5t-96 273.5t96 273.5t253 114.5v-71q-121 -8 -192 -93t-71 -224t71 -224.5t192 -92.5zM440 766q157 -8 253 -114.5t96 -273.5t-96 -273.5t-253 -114.5v71q121 7 192.5 92.5t71.5 224.5t-71.5 224t-192.5 93v71z" />
    <glyph glyph-name="P" unicode="P" horiz-adv-x="636" 
d="M350 755q103 0 169.5 -63.5t66.5 -160.5t-66.5 -160.5t-169.5 -63.5h-181v72h181q72 0 115 42.5t43 109.5q0 68 -42.5 109.5t-115.5 41.5h-181v73h181zM128 154v-154h-78v755h78v-601z" />
    <glyph glyph-name="Q" unicode="Q" horiz-adv-x="839" 
d="M420 766q165 0 267 -107.5t102 -280.5q0 -151 -79.5 -254t-212.5 -127v72q97 24 152 105.5t55 203.5q0 145 -77 231t-207 86t-207 -86t-77 -231q0 -121 54.5 -202.5t150.5 -105.5v-73q-133 25 -212 127.5t-79 253.5q0 173 102.5 280.5t267.5 107.5zM484 -115l40 50h87
l-137 -165h-92v299v0h74v-78v-62v-74h5z" />
    <glyph glyph-name="R" unicode="R" horiz-adv-x="689" 
d="M128 755v-755h-78v755h78zM562 201q19 -94 77 -201h-95q-28 60 -65 201q-18 66 -53 86t-98 20h-159v72h180q73 0 116 42.5t43 109.5t-43 109t-116 42h-180v73h180q104 0 170.5 -63.5t66.5 -160.5q0 -47 -16 -86t-39 -60t-40.5 -32t-26.5 -13v-5q22 0 49.5 -24.5
t40.5 -79.5z" />
    <glyph glyph-name="S" unicode="S" horiz-adv-x="695" 
d="M326 62v-71q-118 7 -194.5 69.5t-81.5 176.5h83q4 -83 56 -126t137 -49zM157 569q0 -44 27 -73t70 -44t95 -26t104 -25.5t95 -35.5t70 -62t27 -100q0 -97 -83 -154t-194 -59v71q83 2 138.5 37t55.5 104q0 42 -27 70t-70 43t-95 27t-104 26.5t-95 36.5t-70 63t-27 100
q0 90 73.5 143t178.5 56v-72q-75 -2 -122 -33.5t-47 -92.5zM368 694v72q252 -12 252 -240h-83q-1 157 -169 168z" />
    <glyph glyph-name="T" unicode="T" horiz-adv-x="661" 
d="M292 638h77v-638h-77v638zM50 755h561v-75h-64h-178h-77h-178h-64v75z" />
    <glyph glyph-name="U" unicode="U" horiz-adv-x="686" 
d="M636 278h-78v477h78v-477zM128 278h-78v477h78v-477zM343 61q97 0 156 42.5t59 133.5h78q0 -122 -81.5 -185t-211.5 -63t-211.5 63t-81.5 185h78q0 -91 59 -133.5t156 -42.5z" />
    <glyph glyph-name="V" unicode="V" horiz-adv-x="815" 
d="M50 755l270 -755h82l-269 755h-83zM496 0l269 755h-82l-269 -755h82z" />
    <glyph glyph-name="W" unicode="W" horiz-adv-x="1076" 
d="M50 755l169 -755h83l-170 755h-82zM396 0l137 731h-83l-136 -731h82zM856 0l170 755h-83l-169 -755h82zM543 731l136 -731h83l-137 731h-82z" />
    <glyph glyph-name="X" unicode="X" horiz-adv-x="687" 
d="M369 276l42 63l226 -339h-84zM386 378l-42 -63l-209 -315h-85l251 378l43 63l209 314h84l-251 -377v0zM319 479l-43 -64l-226 340h85z" />
    <glyph glyph-name="Y" unicode="Y" horiz-adv-x="737" 
d="M50 755l230 -389h82l-230 389h-82zM457 366l230 389h-82l-230 -389h82zM407 0v324h-77v-324h77z" />
    <glyph glyph-name="Z" unicode="Z" horiz-adv-x="703" 
d="M73 680v75h572v-75h-572zM653 75v-75h-603v75h603zM515 638h95l-432 -521h-94l430 520z" />
    <glyph glyph-name="a" unicode="a" horiz-adv-x="552" 
d="M387 124v-88q-52 -46 -149 -46q-81 0 -134.5 40.5t-53.5 105.5q0 55 24.5 90t66.5 50t83.5 21.5t90.5 12t72 13.5v-66q-25 -7 -79 -13.5t-90 -12.5t-65.5 -29t-28.5 -62q2 -80 114 -80q94 0 149 64zM287 534q215 0 215 -206v-136v-13v-179h-25h-49v86v283q0 41 -39.5 69
t-101.5 28q-63 0 -103 -35.5t-40 -90.5v-7h-74v7q0 78 58.5 136t158.5 58z" />
    <glyph glyph-name="b" unicode="b" 
d="M124 86v-86h-74v755h74v-125v-190v-177v-177zM314 536q110 0 180.5 -76.5t71.5 -196.5q-1 -120 -71.5 -196.5t-180.5 -76.5q-94 0 -149 48v86q51 -67 149 -67q85 0 131.5 56.5t47.5 149.5q-1 93 -47.5 149.5t-131.5 56.5q-98 0 -149 -68v87q55 48 149 48z" />
    <glyph glyph-name="c" unicode="c" horiz-adv-x="610" 
d="M326 469v67q62 -3 109 -24t69.5 -50t36.5 -57.5t17 -48.5l2 -19h-80q-4 40 -22.5 67.5t-45 40.5t-46.5 18t-40 6zM326 57q20 1 40 6t46.5 18t45 40.5t22.5 67.5h80q-1 -8 -3 -20.5t-16 -46t-36.5 -59.5t-69.5 -48t-109 -25v67zM284 58v-67q-102 8 -168 83.5t-66 188.5v0
q1 113 66.5 188t167.5 84v-67q-74 -9 -115.5 -64.5t-41.5 -140.5t41.5 -140.5t115.5 -64.5z" />
    <glyph glyph-name="d" unicode="d" 
d="M451 124v-86q-55 -48 -149 -48q-111 0 -181 76.5t-71 196.5q1 120 71.5 196.5t180.5 76.5q94 0 149 -48v-87q-51 68 -149 68q-85 0 -131.5 -56.5t-47.5 -149.5q1 -93 47.5 -149.5t131.5 -56.5q98 0 149 67zM492 755h74v-755h-74v86v177v0v177v315z" />
    <glyph glyph-name="e" unicode="e" horiz-adv-x="609" 
d="M309 57h16.5t38 6.5t49.5 18.5t42 40t24 67h80q0 -4 -1 -11t-6.5 -28t-14.5 -39.5t-28.5 -41.5t-44.5 -39.5t-65.5 -28t-89.5 -11.5q-95 0 -164.5 57.5t-88.5 152.5h77q15 -66 61 -104.5t115 -38.5v0zM559 263v0v-21h-27h-50h-51h-304h-76q-1 7 -1 21v0q0 120 72 196.5
t183 76.5t182.5 -76.5t71.5 -196.5zM130 310h349q-12 73 -56.5 116t-117.5 43t-118 -43t-57 -116z" />
    <glyph glyph-name="f" unicode="f" horiz-adv-x="423" 
d="M369 457v69h-319v-69h319zM235 0v416h-73v-416h73zM162 597q0 45 13.5 79.5t35.5 53t50 28t56.5 8.5t55.5 -9v-68q-64 17 -101 -6t-37 -86v-30h-73v30z" />
    <glyph glyph-name="g" unicode="g" 
d="M302 -11q-110 0 -180.5 77t-71.5 196q1 121 71.5 197.5t180.5 76.5q94 0 149 -48v-87q-51 68 -149 68q-85 0 -131.5 -57t-46.5 -150q0 -92 46.5 -149t131.5 -57q97 0 149 68v-87q-55 -48 -149 -48zM493 525h73v-535q0 -69 -26 -118.5t-62.5 -70.5t-73 -32t-62.5 -11
l-26 1q-54 0 -97.5 12.5t-69 33t-44 45t-26 49.5t-11 45.5t-3.5 33.5v12h76q0 -48 18 -82.5t43.5 -49t51 -23t43.5 -8.5h18q52 0 89.5 17t54 40.5t25 47.5t8.5 41l1 17v20v75v177v177v86z" />
    <glyph glyph-name="h" unicode="h" horiz-adv-x="556" 
d="M123 440v-160v-12v-268h-73v755h73v-315zM278 535q1 -2 13 0t32.5 -3t44.5 -10t48.5 -22t44.5 -39t32.5 -60.5t12.5 -86.5v-314h-74v314q0 6 -1 16.5t-10 37t-23.5 47t-46 37t-73.5 16.5q-8 0 -20 -1t-42.5 -14.5t-50.5 -38.5v81q43 37 113 40z" />
    <glyph glyph-name="i" unicode="i" horiz-adv-x="248" 
d="M50 755v-149h148v149h-148zM87 526v-526h74v526h-74z" />
    <glyph glyph-name="j" unicode="j" horiz-adv-x="342" 
d="M145 754v-149h147v149h-147zM50 -162v-73q27 -4 55 -6t55 7.5t48 26.5t34 50.5t13 80.5v601h-74v-601q0 -111 -131 -86z" />
    <glyph glyph-name="k" unicode="k" horiz-adv-x="555" 
d="M124 294v-99v-195h-74v755h74v-260v-169v-31v-1zM260 321l245 -321h-92l-207 271l-40 -37v100l201 189h101z" />
    <glyph glyph-name="l" unicode="l" horiz-adv-x="174" 
d="M50 755v-755h74v755h-74z" />
    <glyph glyph-name="m" unicode="m" horiz-adv-x="940" 
d="M661 536q1 -2 13 0t32.5 -3l44.5 -10.5t49 -22.5t45 -39t32.5 -60.5t12.5 -86.5v-314h-74v314q0 6 -1.5 16.5t-10 37t-23.5 47t-46.5 37t-73.5 16.5q-6 0 -16.5 -0.5t-37 -10.5t-46.5 -28.5t-37 -60t-17 -98.5v-270h-74v315q-1 15 -5 32t-18 48.5t-48 52t-83 20.5
q-8 0 -20.5 -1t-43 -14.5t-50.5 -38.5v83q43 39 114 39q52 0 91 -13t57.5 -32t29.5 -37.5t13 -31.5l2 -13h5q6 38 27 65t47 38.5t51 17.5t42 6h17zM124 440v-172v-258v-10h-74v526h74v-86z" />
    <glyph glyph-name="n" unicode="n" horiz-adv-x="557" 
d="M124 440v-172v-258v-10h-74v526h74v-86zM279 536q1 -2 13 0t32.5 -3l44.5 -10.5t48.5 -22.5t44.5 -39t32.5 -60.5t12.5 -86.5v-314h-74v314q0 6 -1 16.5t-10 37t-23.5 47t-46 37t-73.5 16.5q-8 0 -20.5 -1t-42.5 -14.5t-50 -38.5v82q41 39 113 40z" />
    <glyph glyph-name="o" unicode="o" horiz-adv-x="618" 
d="M288 58v-68q-103 8 -170.5 83.5t-67.5 189.5v0q0 114 67.5 189.5t170.5 83.5v-68q-76 -7 -119 -62.5t-43 -142.5t43 -142.5t119 -62.5zM568 263v0q0 -114 -67 -189.5t-171 -83.5v68q76 7 119 63t43 142t-43 142t-119 63v68q104 -8 171 -83.5t67 -189.5z" />
    <glyph glyph-name="p" unicode="p" 
d="M124 85v-315h-74v755h74v-86v-177v-177zM314 536q111 0 181 -76.5t71 -197.5q-1 -119 -71.5 -196t-180.5 -77q-94 0 -149 48v87q52 -68 149 -68q85 0 131.5 57t47.5 149q-1 93 -47.5 150t-131.5 57q-98 0 -149 -68v87q55 48 149 48z" />
    <glyph glyph-name="q" unicode="q" horiz-adv-x="772" 
d="M451 124v-87q-55 -48 -149 -48q-110 0 -180.5 77t-71.5 196q1 121 71.5 197.5t180.5 76.5q94 0 149 -48v-87q-51 68 -149 68q-85 0 -131.5 -57t-46.5 -150q0 -92 46.5 -149t131.5 -57q97 0 149 68zM635 -65h87l-137 -165h-92v315v177v177v86h73v-670h5l24 30z" />
    <glyph glyph-name="r" unicode="r" horiz-adv-x="376" 
d="M294 536q12 0 32 -2v-76q-15 3 -32 3q-83 0 -129 -55v85q48 45 129 45zM124 85v-85h-74v525h74v-86v-184v0v-170z" />
    <glyph glyph-name="s" unicode="s" horiz-adv-x="551" 
d="M255 59v-68q-91 7 -147.5 57.5t-57.5 138.5v2h74v-2q3 -116 131 -128zM296 467v68q95 -8 142 -61t49 -131v-6h-74v6q-1 114 -117 124zM137 382q0 -38 37.5 -56.5t91 -25t107 -17t91 -43.5t37.5 -93q0 -72 -60.5 -113t-144.5 -44v68q57 2 94 23.5t37 62.5q0 32 -27 51.5
t-67.5 26t-87.5 15.5t-87.5 20.5t-67.5 42.5t-27 79q0 68 54 111.5t138 45.5v-68q-58 -3 -88 -28t-30 -58z" />
    <glyph glyph-name="t" unicode="t" horiz-adv-x="407" 
d="M357 458v68h-307v-68h307zM236 0v416h-74v-416h74zM236 567v110h-74v-110h74z" />
    <glyph glyph-name="u" unicode="u" horiz-adv-x="556" 
d="M391 112v-82q-42 -39 -113 -40q-1 2 -13 0t-32.5 3t-44.5 10t-48.5 22t-44.5 39t-32.5 60.5t-12.5 86.5v315h73v-315q0 -6 1.5 -16.5t10 -37t23.5 -46.5t46.5 -36.5t73.5 -16.5q8 0 20 0.5t42.5 14t50.5 39.5zM432 526h74v-526h-74v85v172v1v268z" />
    <glyph glyph-name="v" unicode="v" horiz-adv-x="643" 
d="M316 0l-184 526h-82l185 -526h81zM327 0l185 526h81l-185 -526h-81z" />
    <glyph glyph-name="w" unicode="w" horiz-adv-x="855" 
d="M257 0l-131 526h-76l131 -526h76zM268 0l76 511h77l-77 -511h-76zM588 0l-77 511h-76l76 -511h77zM598 0l131 526h76l-130 -526h-77z" />
    <glyph glyph-name="x" unicode="x" horiz-adv-x="585" 
d="M535 526h-88l-397 -526h87zM362 228l173 -228h-88l-129 171zM222 298l-172 228h87l129 -171z" />
    <glyph glyph-name="y" unicode="y" horiz-adv-x="642" 
d="M358 74v-304h-74v304h74zM316 115l-185 411h-81l184 -411h82zM326 115l185 411h81l-184 -411h-82z" />
    <glyph glyph-name="z" unicode="z" horiz-adv-x="574" 
d="M524 74v-74h-474v74h474zM65 452v74h451v-74h-451zM378 411h98l-279 -288l-9 -8h-98l278 287z" />
    </font>
</defs>
</svg>
