<svg id="Layer_1" data-name="Layer 1" xmlns="http://www.w3.org/2000/svg" viewBox="0 0 510.52 156.18"><title>Artboard 1 copy 11</title><rect y="1.08" width="11.02" height="71.95"/><path d="M120.92,32.76H64.46V43.6h56.47Zm-2,8.84H66.46V34.76h52.47Z"/><path d="M160.26.09C139.47.09,125,15.27,125,37s14.52,37,35.3,37,35.21-15.22,35.21-37S181,.09,160.26.09Zm0,63.54c-14.53,0-23.56-10.2-23.56-26.62s9-26.53,23.56-26.53S183.82,20.64,183.82,37,174.79,63.63,160.26,63.63Z"/><path d="M225.65,1.08H199.81V73h25.85c20.25,0,34.4-14.81,34.4-36S245.91,1.08,225.65,1.08Zm0,61.56H210.83V11.47h14.83c14,0,22.66,9.82,22.66,25.63S239.63,62.64,225.65,62.64Z"/><polygon points="264.25 74.15 315.23 74.15 315.23 63.4 275.27 63.4 275.27 41.93 313.7 41.93 313.7 31.54 275.27 31.54 275.27 12.96 315.23 12.96 315.23 2.21 264.25 2.21 264.25 74.15"/><path d="M349.09,31.21c-11.15-2.49-17.92-4.5-17.92-11.39,0-8.51,9.93-9.43,14.2-9.43,11.14,0,15.92,4,16,13.32l0,2h11.45v-2C372.83,8,363.59,0,345.36,0,327.73,0,319.7,10.32,319.7,19.91c0,15.64,14.51,19,26.16,21.74,11,2.58,17.76,4.61,17.76,11.2,0,9.92-12.52,10.69-16.36,10.69-8,0-17.72-2.42-18.34-13.95l-.1-1.89H317.35l.1,2.09c.7,14.89,12.12,24.14,29.81,24.14A34.86,34.86,0,0,0,366,68.74c5.92-3.91,9.05-9.44,9.05-16C375.08,37,360.67,33.8,349.09,31.21Z"/><rect x="378.83" y="1.08" width="10.93" height="71.95"/><path d="M420.64,1.08H394.79V73h25.85C440.89,73,455,58.22,455,37S440.89,1.08,420.64,1.08Zm0,61.56H405.81V11.47h14.83c14,0,22.66,9.82,22.66,25.63S434.61,62.64,420.64,62.64Z"/><polygon points="459.54 73.03 510.52 73.03 510.52 62.28 470.56 62.28 470.56 40.81 508.99 40.81 508.99 30.42 470.56 30.42 470.56 11.83 510.52 11.83 510.52 1.08 459.54 1.08 459.54 73.03"/><path d="M54.55,52.54l-.73-2.75c-1.14-5-3.43-7.83-5.67-9.37a20.53,20.53,0,0,0,8.6-17.18c0-12.84-9.81-22.16-23.33-22.16H18.52V11.65h14.9c7.48,0,12.31,4.55,12.31,11.59S40.9,34.92,33.42,34.92H18.52V45.4h13c5.91,0,9.64.54,11.66,8,3.34,12.72,5.87,18.2,6,18.43L49.69,73H62.88l-1.6-3A71.19,71.19,0,0,1,54.55,52.54ZM51,71h0c-.1-.22-2.55-5.52-5.85-18.1-2.37-8.83-7.34-9.53-13.59-9.53h-11V36.92h12.9c8.56,0,14.31-5.5,14.31-13.68S42,9.65,33.42,9.65H20.52V3.08h12.9c12.36,0,21.33,8.48,21.33,20.16A18.61,18.61,0,0,1,47,38.79l-2.35,1.66L47,42.07c1.61,1.11,3.76,3.42,4.85,8.17v.07L52.6,53a73.61,73.61,0,0,0,6.92,18Z"/><rect x="64.46" y="1.08" width="11.02" height="24.5"/><rect x="109.99" y="1.08" width="10.93" height="24.5"/><rect x="65.46" y="50.78" width="11.02" height="22.25"/><rect x="110.99" y="50.78" width="10.93" height="22.25"/><path d="M87,84.23,59.55,156.18h12L78.79,136h28.33l7.2,20.16h12.05L98.93,84.23ZM103,125H82.92L93,98.88l10,26Z"/><polygon points="188.18 84.23 204.28 156.18 215.85 156.18 199.65 84.23 188.18 84.23"/><polygon points="216.9 156.18 228.35 156.18 241.43 86.39 229.89 86.39 216.9 156.18"/><polygon points="242.06 86.39 255.04 156.18 266.58 156.18 253.5 86.39 242.06 86.39"/><polygon points="268.63 156.18 280.11 156.18 296.31 84.23 284.73 84.23 268.63 156.18"/><polygon points="300.23 156.18 351.21 156.18 351.21 145.43 311.25 145.43 311.25 123.96 349.68 123.96 349.68 113.57 311.25 113.57 311.25 94.98 351.21 94.98 351.21 84.23 300.23 84.23 300.23 156.18"/><polygon points="367.21 84.23 356.19 84.23 356.19 156.18 402.4 156.18 402.4 145.43 367.21 145.43 367.21 84.23"/><polygon points="418.42 145.43 418.42 84.23 407.4 84.23 407.4 156.18 453.61 156.18 453.61 145.43 418.42 145.43"/><rect x="130.82" y="84.23" width="11.02" height="71.95"/><path d="M185.37,135.69l-.73-2.75c-1.14-5-3.43-7.83-5.67-9.37a20.53,20.53,0,0,0,8.6-17.18c0-12.84-9.81-22.16-23.33-22.16h-14.9V94.8h14.9c7.48,0,12.31,4.55,12.31,11.59s-4.83,11.68-12.31,11.68h-14.9v10.48h13c5.91,0,9.64.54,11.66,8,3.34,12.72,5.87,18.2,6,18.43l.54,1.15H193.7l-1.6-3A71.19,71.19,0,0,1,185.37,135.69Zm-3.58,18.49h0c-.1-.22-2.55-5.52-5.85-18.1-2.37-8.83-7.34-9.53-13.59-9.53h-11v-6.48h12.9c8.56,0,14.31-5.5,14.31-13.68S172.8,92.8,164.24,92.8h-12.9V86.23h12.9c12.36,0,21.33,8.48,21.33,20.16a18.61,18.61,0,0,1-7.75,15.55l-2.35,1.66,2.37,1.63c1.61,1.11,3.76,3.42,4.85,8.17v.07l.72,2.7a73.61,73.61,0,0,0,6.92,18Z"/><path d="M0,126.75H56.47V115.91H0Zm2-8.84H54.47v6.84H2Z"/><rect y="84.23" width="11.02" height="24.5"/><rect x="45.54" y="84.23" width="10.93" height="24.5"/><rect y="133.93" width="11.02" height="22.25"/><rect x="45.54" y="133.93" width="10.93" height="22.25"/></svg>